<mxfile host="app.diagrams.net" modified="2021-03-25T08:05:08.313Z" agent="5.0 (Macintosh; Intel Mac OS X 10_15_7) AppleWebKit/537.36 (KHTML, like Gecko) Chrome/86.0.4240.193 Safari/537.36" etag="KHLDF6Ca9QxKzn5w6HSX" version="14.4.9" type="github">
  <diagram id="iVaXkGbP1fdY2rhGXSuQ" name="Page-1">
    <mxGraphModel dx="946" dy="536" grid="1" gridSize="10" guides="1" tooltips="1" connect="1" arrows="1" fold="1" page="1" pageScale="1" pageWidth="827" pageHeight="1169" math="0" shadow="0">
      <root>
        <mxCell id="0" />
        <mxCell id="1" parent="0" />
        <mxCell id="PuwAvt0-GzwkdCZXLAHx-7" style="edgeStyle=orthogonalEdgeStyle;rounded=0;orthogonalLoop=1;jettySize=auto;html=1;exitX=0.5;exitY=1;exitDx=0;exitDy=0;entryX=0.5;entryY=0;entryDx=0;entryDy=0;" edge="1" parent="1" source="PuwAvt0-GzwkdCZXLAHx-1" target="PuwAvt0-GzwkdCZXLAHx-2">
          <mxGeometry relative="1" as="geometry" />
        </mxCell>
        <mxCell id="PuwAvt0-GzwkdCZXLAHx-1" value="ContextLoaderListener#contextInitialized" style="rounded=1;whiteSpace=wrap;html=1;fillColor=#ffe6cc;strokeColor=#d79b00;" vertex="1" parent="1">
          <mxGeometry x="130" y="170" width="250" height="60" as="geometry" />
        </mxCell>
        <mxCell id="PuwAvt0-GzwkdCZXLAHx-8" style="edgeStyle=orthogonalEdgeStyle;rounded=0;orthogonalLoop=1;jettySize=auto;html=1;exitX=1;exitY=0.5;exitDx=0;exitDy=0;entryX=0;entryY=0.5;entryDx=0;entryDy=0;" edge="1" parent="1" source="PuwAvt0-GzwkdCZXLAHx-2" target="PuwAvt0-GzwkdCZXLAHx-4">
          <mxGeometry relative="1" as="geometry" />
        </mxCell>
        <mxCell id="PuwAvt0-GzwkdCZXLAHx-9" style="edgeStyle=orthogonalEdgeStyle;rounded=0;orthogonalLoop=1;jettySize=auto;html=1;exitX=1;exitY=0.5;exitDx=0;exitDy=0;entryX=0;entryY=0.5;entryDx=0;entryDy=0;" edge="1" parent="1" source="PuwAvt0-GzwkdCZXLAHx-2" target="PuwAvt0-GzwkdCZXLAHx-5">
          <mxGeometry relative="1" as="geometry" />
        </mxCell>
        <mxCell id="PuwAvt0-GzwkdCZXLAHx-10" style="edgeStyle=orthogonalEdgeStyle;rounded=0;orthogonalLoop=1;jettySize=auto;html=1;exitX=1;exitY=0.5;exitDx=0;exitDy=0;entryX=0;entryY=0.5;entryDx=0;entryDy=0;" edge="1" parent="1" source="PuwAvt0-GzwkdCZXLAHx-2" target="PuwAvt0-GzwkdCZXLAHx-6">
          <mxGeometry relative="1" as="geometry" />
        </mxCell>
        <mxCell id="PuwAvt0-GzwkdCZXLAHx-2" value="ContextLoader#initWebApplicationContext" style="rounded=1;whiteSpace=wrap;html=1;fillColor=#dae8fc;strokeColor=#6c8ebf;" vertex="1" parent="1">
          <mxGeometry x="130" y="290" width="250" height="60" as="geometry" />
        </mxCell>
        <mxCell id="PuwAvt0-GzwkdCZXLAHx-4" value="ContextLoader#createWebApplicationContext&lt;br&gt;创建父容器" style="rounded=1;whiteSpace=wrap;html=1;fillColor=#dae8fc;strokeColor=#6c8ebf;" vertex="1" parent="1">
          <mxGeometry x="470" y="170" width="350" height="60" as="geometry" />
        </mxCell>
        <mxCell id="PuwAvt0-GzwkdCZXLAHx-5" value="ContextLoader#configureAndRefreshWebApplicationContext&lt;br&gt;加载配置文件并启动父容器" style="rounded=1;whiteSpace=wrap;html=1;fillColor=#dae8fc;strokeColor=#6c8ebf;" vertex="1" parent="1">
          <mxGeometry x="470" y="290" width="350" height="60" as="geometry" />
        </mxCell>
        <mxCell id="PuwAvt0-GzwkdCZXLAHx-6" value="&lt;pre&gt;servletContext.setAttribute&lt;/pre&gt;&lt;pre&gt;将父容器设置到tomcat容器全局属性中&lt;/pre&gt;&lt;pre&gt;子容器设置父容器的时候可以直接从全局属性中取&lt;/pre&gt;" style="rounded=1;whiteSpace=wrap;html=1;fillColor=#dae8fc;strokeColor=#6c8ebf;" vertex="1" parent="1">
          <mxGeometry x="470" y="400" width="350" height="80" as="geometry" />
        </mxCell>
      </root>
    </mxGraphModel>
  </diagram>
</mxfile>
